<svg width="97" height="97" viewBox="0 0 97 97" fill="none" xmlns="http://www.w3.org/2000/svg">
<mask id="mask0" mask-type="alpha" maskUnits="userSpaceOnUse" x="0" y="0" width="97" height="97">
<path d="M42.1545 17.0035V22.7212C42.1545 24.378 40.8113 25.7212 39.1545 25.7212H17.134C15.4772 25.7212 14.134 27.0643 14.134 28.7212V78.5073C14.134 80.1642 15.4772 81.5073 17.134 81.5073H65.9013C67.5581 81.5073 68.9013 80.1642 68.9013 78.5073V56.9964C68.9013 55.3395 70.2444 53.9964 71.9013 53.9964H78.8926C80.5494 53.9964 81.8926 55.3395 81.8926 56.9964V91.2439C81.8926 92.9008 80.5494 94.2439 78.8926 94.2439H5.16164C3.50478 94.2439 2.16164 92.9008 2.16164 91.2439V17.0035C2.16164 15.3467 3.50479 14.0035 5.16164 14.0035H39.1545C40.8113 14.0035 42.1545 15.3467 42.1545 17.0035Z" stroke="black" stroke-width="4"/>
<path d="M29.9274 62.714V45.5334C29.9274 43.8766 31.2705 42.5334 32.9274 42.5334H51.1269C52.7837 42.5334 54.1269 43.8766 54.1269 45.5334V62.714C54.1269 64.3708 52.7837 65.714 51.1269 65.714H32.9274C31.2705 65.714 29.9274 64.3708 29.9274 62.714Z" stroke="black" stroke-width="4"/>
<path d="M57.9478 11.2583V5.28589C57.9478 3.62903 59.291 2.28589 60.9478 2.28589H91.1197C92.7766 2.28589 94.1197 3.62903 94.1197 5.28589V35.4577C94.1197 37.1146 92.7766 38.4577 91.1197 38.4577H84.6379C82.981 38.4577 81.6379 37.1146 81.6379 35.4577V17.2583C81.6379 15.6014 80.2947 14.2583 78.6379 14.2583H60.9478C59.291 14.2583 57.9478 12.9152 57.9478 11.2583Z" stroke="black" stroke-width="4"/>
<path d="M53.8721 42.5334L69.156 26.4855M69.156 26.4855V42.5334M69.156 26.4855H52.5985" stroke="black" stroke-width="4" stroke-linecap="round" stroke-linejoin="round"/>
<rect x="36.1342" y="48" width="11.7857" height="11.7857" rx="3" fill="#C4C4C4"/>
</mask>
<g mask="url(#mask0)">
<rect x="-16" y="-16" width="128" height="128" fill="url(#paint0_linear)"/>
</g>
<defs>
<linearGradient id="paint0_linear" x1="48" y1="-45.8298" x2="48" y2="129.552" gradientUnits="userSpaceOnUse">
<stop stop-color="#1E6BFF"/>
<stop offset="1" stop-color="#BC27FF"/>
</linearGradient>
</defs>
</svg>
