<svg width="405" height="478" viewBox="0 0 405 478" fill="none" xmlns="http://www.w3.org/2000/svg">
<path d="M99.9738 399.075L99.9738 399.075C101.971 397.912 103.83 396.934 105.864 396.461C107.945 395.977 110.107 396.042 112.717 396.772C114.832 397.362 117.032 398.571 118.622 400.09C120.152 401.552 121.478 403.681 120.829 406.005C120.341 407.752 119.065 408.735 117.545 409.341C116.1 409.917 114.215 410.24 112.145 410.572C112.048 410.588 111.951 410.603 111.853 410.619C109.423 411.008 106.909 411.411 104.763 412.376C102.61 413.345 100.94 414.83 100.215 417.426L99.9383 418.415C99.8573 418.705 100.061 419.509 101.174 419.82L110.096 422.311C111.209 422.622 111.8 422.041 111.881 421.751L112.044 421.167C112.329 420.147 113.025 419.462 113.791 419.006C114.53 418.565 115.42 418.283 116.303 418.068C117.198 417.851 118.206 417.677 119.218 417.503L119.281 417.492C120.291 417.319 121.325 417.141 122.371 416.91C126.653 415.966 130.598 414.26 132.003 409.23C133.054 405.465 131.648 401.306 128.513 397.601C125.392 393.911 120.719 390.891 115.778 389.511C106.359 386.88 99.5285 388.35 93.263 392.596C93.0206 392.76 92.9405 392.947 92.9271 393.108C92.9128 393.279 92.9664 393.548 93.2368 393.843L99.9738 399.075ZM99.9738 399.075C99.3386 399.445 98.2361 399.303 97.6239 398.635C97.6239 398.635 97.6239 398.635 97.6238 398.635L93.2368 393.843L99.9738 399.075ZM95.3595 430.516C96.1449 427.704 99.8127 425.766 103.996 426.934C108.18 428.103 110.312 431.661 109.527 434.473C108.741 437.285 105.074 439.224 100.89 438.055C96.7067 436.887 94.5742 433.328 95.3595 430.516Z" fill="white" stroke="black" stroke-width="3"/>
<path d="M19.6783 15.9068C10.7753 18.5936 5.91302 23.3301 2.99834 30.04C2.4696 31.2572 3.12389 32.5099 4.48485 32.8777L10.2009 34.4225C11.5753 34.7939 13.1707 34.1287 13.7952 32.9231C15.7215 29.2048 17.2945 26.9239 21.6587 25.6069C25.0901 24.5713 29.8819 25.1045 30.7067 27.8378C31.3303 29.904 29.574 31.5918 26.6567 34.1746C23.2547 37.1866 18.7096 41.029 20.4191 46.6939L20.6898 47.5907C21.0563 48.8052 22.5519 49.428 24.0303 48.9818L32.1137 46.5424C33.5922 46.0962 34.4936 44.75 34.1271 43.5356L33.9675 43.0066C32.7824 39.0797 46.7055 34.6996 43.4986 24.0731C41.0837 16.0704 29.1459 13.0496 19.6783 15.9068ZM28.8866 50.4611C24.6262 51.7469 22.0193 55.64 23.0755 59.1396C24.1315 62.6391 28.4569 64.4402 32.7172 63.1545C36.9776 61.8688 39.5845 57.9757 38.5284 54.4761C37.4723 50.9765 33.147 49.1754 28.8866 50.4611Z" fill="black"/>
<path d="M127.601 89.8853C114.209 93.9268 106.895 101.052 102.51 111.145C101.715 112.976 102.699 114.86 104.746 115.414L113.345 117.737C115.412 118.296 117.812 117.295 118.751 115.482C121.649 109.889 124.015 106.458 130.58 104.476C135.742 102.919 142.949 103.721 144.19 107.832C145.128 110.94 142.486 113.479 138.098 117.364C132.981 121.895 126.144 127.675 128.715 136.196L129.122 137.545C129.674 139.372 131.923 140.309 134.147 139.638L146.307 135.968C148.531 135.297 149.887 133.272 149.335 131.446L149.095 130.65C147.313 124.743 168.256 118.154 163.432 102.169C159.8 90.1314 141.842 85.5874 127.601 89.8853ZM141.452 141.863C135.044 143.797 131.122 149.654 132.711 154.918C134.3 160.182 140.806 162.891 147.215 160.957C153.623 159.023 157.545 153.167 155.956 147.903C154.367 142.638 147.861 139.929 141.452 141.863Z" fill="black"/>
<path d="M11.8141 86.5975C57.4572 32.7295 115.514 2.5 205.535 2.5C253.284 2.5 302.66 17.8186 340.045 43.1897C377.457 68.5797 402.501 103.756 402.5 143.4C402.5 196.096 368.008 222.937 332.631 241.773C324.003 246.367 315.368 250.46 307.192 254.336L306.594 254.619C298.268 258.566 290.401 262.307 283.639 266.094C276.894 269.871 271.073 273.787 266.92 278.145C262.731 282.542 260.112 287.531 260.112 293.36V298.75C260.112 309.306 249.5 318.656 235.332 318.656H152.956C138.788 318.656 128.176 309.306 128.176 298.75V289.612C128.176 261.67 141.015 242.123 158.952 227.169C176.163 212.82 197.923 202.817 217.443 193.844C218.39 193.408 219.332 192.975 220.269 192.544C237.47 184.623 251.663 177.833 261.531 170.311C271.506 162.708 277.412 154.083 277.412 142.507C277.412 127.17 265.542 114.934 250.091 106.689C234.521 98.3808 214.558 93.6714 196.691 93.6714C174.104 93.6714 157.28 97.9628 142.456 106.074C127.703 114.148 115.084 125.929 100.831 140.594C92.4763 149.191 77.0109 150.852 66.1476 144.087L17.114 113.55C11.8044 110.243 8.70215 105.608 7.7885 100.834C6.878 96.077 8.09845 90.9827 11.8141 86.5975ZM117.907 413.33C117.907 379.489 151.627 351.159 194.145 351.159C236.663 351.159 270.383 379.488 270.383 413.329C270.383 447.17 236.663 475.5 194.145 475.5C151.627 475.5 117.907 447.17 117.907 413.33Z" fill="white" stroke="black" stroke-width="5"/>
<path d="M219.181 55.0662C209.354 52.3217 202.066 53.8513 195.422 58.3539C194.216 59.1706 194.086 60.7157 195.13 61.8564L199.518 66.6476C200.573 67.7996 202.441 68.1211 203.729 67.3715C207.699 65.0592 210.497 63.8709 215.314 65.2162C219.101 66.274 223.227 69.5847 222.384 72.6016C221.747 74.8823 219.128 75.4134 214.908 76.0912C209.986 76.8816 203.516 77.7694 201.77 84.0221L201.494 85.012C201.119 86.3524 202.139 87.8085 203.77 88.2643L212.693 90.7562C214.325 91.2119 215.951 90.4947 216.325 89.1543L216.488 88.5704C217.699 84.236 233.172 88.3628 236.447 76.6335C238.915 67.8005 229.631 57.9848 219.181 55.0662ZM207.4 92.4894C202.697 91.1761 197.994 93.2502 196.915 97.1129C195.836 100.976 198.784 105.187 203.487 106.5C208.189 107.813 212.893 105.739 213.971 101.877C215.05 98.0138 212.102 93.8028 207.4 92.4894Z" fill="black"/>
<path d="M347.782 200.936C335.348 197.463 326.125 199.399 317.718 205.096C316.192 206.13 316.028 208.085 317.349 209.528L322.901 215.591C324.236 217.048 326.6 217.455 328.229 216.507C333.253 213.581 336.793 212.077 342.889 213.78C347.681 215.118 352.902 219.307 351.835 223.125C351.029 226.011 347.715 226.683 342.375 227.54C336.146 228.54 327.961 229.664 325.751 237.576L325.401 238.828C324.927 240.524 326.217 242.367 328.282 242.944L339.572 246.097C341.637 246.673 343.695 245.766 344.168 244.07L344.375 243.331C345.907 237.846 365.485 243.068 369.63 228.227C372.752 217.05 361.006 204.629 347.782 200.936ZM332.874 248.29C326.924 246.628 320.972 249.253 319.607 254.14C318.242 259.028 321.973 264.357 327.923 266.018C333.873 267.68 339.825 265.056 341.19 260.168C342.555 255.28 338.825 249.952 332.874 248.29Z" fill="black"/>
<path d="M346.947 69.4114L346.947 69.4114C348.507 67.7053 349.989 66.2176 351.79 65.1597C353.632 64.0774 355.715 63.4948 358.424 63.4122C360.619 63.3453 363.079 63.8433 365.049 64.8186C366.946 65.7579 368.846 67.3947 368.92 69.8066C368.975 71.6195 368.051 72.9387 366.78 73.9701C365.572 74.9505 363.869 75.8212 361.993 76.7555C361.905 76.7994 361.817 76.8434 361.728 76.8874C359.525 77.9835 357.246 79.1175 355.485 80.679C353.718 82.2456 352.567 84.1618 352.649 86.8549L352.681 87.8822C352.69 88.1829 353.124 88.8892 354.279 88.854L363.538 88.5717C364.693 88.5365 365.083 87.8051 365.074 87.5044L365.056 86.8985C365.023 85.8397 365.484 84.9783 366.079 84.3142C366.654 83.6736 367.418 83.1388 368.197 82.6708C368.987 82.1967 369.897 81.7299 370.811 81.2621L370.868 81.2328C371.78 80.7659 372.714 80.2875 373.643 79.7558C377.45 77.5776 380.706 74.7727 380.547 69.5527C380.428 65.6458 377.845 62.0949 373.748 59.4932C369.668 56.9022 364.307 55.413 359.18 55.5693C349.405 55.8672 343.323 59.3068 338.609 65.2278C338.427 65.4569 338.406 65.6597 338.442 65.8175C338.479 65.985 338.61 66.2255 338.956 66.4267L346.947 69.4114ZM346.947 69.4114C346.451 69.9539 345.356 70.1471 344.573 69.6916C344.573 69.6915 344.573 69.6915 344.573 69.6915L338.956 66.4267L346.947 69.4114ZM351.919 100.798C351.83 97.8797 354.753 94.9355 359.094 94.8032C363.436 94.6708 366.532 97.4315 366.621 100.35C366.71 103.268 363.787 106.212 359.446 106.345C355.105 106.477 352.008 103.716 351.919 100.798Z" fill="white" stroke="black" stroke-width="3"/>
<path d="M159.619 187.658L160.486 188.882L159.619 187.658C157.921 188.86 155.101 188.677 153.39 187.113C153.39 187.113 153.39 187.113 153.39 187.113L144.261 178.768C143.449 178.026 143.113 177.177 143.108 176.433C143.104 175.699 143.421 174.946 144.157 174.345C155.643 164.974 168.757 160.943 187.44 164.411C197.305 166.242 206.925 171.307 213.664 177.971C220.417 184.65 224.095 192.729 222.625 200.648C220.667 211.194 212.822 215.331 204.73 217.885C202.756 218.508 200.797 219.027 198.919 219.525L198.79 219.56C196.89 220.063 195.055 220.552 193.446 221.097C191.849 221.639 190.362 222.273 189.2 223.113C188.013 223.972 187.075 225.115 186.789 226.656L186.579 227.791C186.294 229.324 184.351 230.731 181.709 230.241L164.367 227.022C161.725 226.532 160.417 224.52 160.701 222.987L161.058 221.063C162.085 215.529 165.324 212.129 169.501 209.785C173.57 207.501 178.428 206.273 182.92 205.138C183.123 205.087 183.325 205.036 183.527 204.985C187.432 203.996 190.796 203.097 193.28 201.842C195.837 200.55 197.697 198.759 198.224 195.924C198.923 192.159 196.547 188.798 193.526 186.385C190.441 183.922 186.273 182.088 182.367 181.363C177.479 180.456 173.603 180.7 169.988 181.887C166.418 183.059 163.2 185.121 159.619 187.658ZM154.061 246.709C155.256 240.274 162.806 235.773 171.416 237.372C180.026 238.97 185.458 245.88 184.263 252.315C183.068 258.751 175.518 263.251 166.908 261.653C158.298 260.055 152.867 253.144 154.061 246.709Z" fill="white" stroke="black" stroke-width="3"/>
<path d="M28.9738 194.075L28.9738 194.075C30.9713 192.912 32.83 191.934 34.8641 191.461C36.945 190.977 39.1069 191.042 41.7174 191.772C43.8323 192.362 46.0323 193.571 47.6216 195.09C49.1522 196.552 50.4782 198.681 49.8291 201.005C49.3412 202.752 48.0654 203.735 46.5449 204.341C45.0996 204.917 43.2148 205.24 41.1454 205.572C41.0481 205.588 40.9507 205.603 40.8532 205.619C38.4234 206.008 35.9094 206.411 33.7632 207.376C31.6098 208.345 29.9395 209.83 29.2147 212.426L28.9383 213.415C28.8573 213.705 29.0611 214.509 30.1739 214.82L39.0962 217.311C40.209 217.622 40.7997 217.041 40.8806 216.751L41.0437 216.167C41.3286 215.147 42.0253 214.462 42.7915 214.006C43.5305 213.565 44.4199 213.283 45.3031 213.068C46.1978 212.851 47.2057 212.677 48.2175 212.503L48.2809 212.492C49.2905 212.319 50.3252 212.141 51.3706 211.91C55.6533 210.966 59.598 209.26 61.0028 204.23C62.0542 200.465 60.6475 196.306 57.5132 192.601C54.3918 188.911 49.7186 185.891 44.7779 184.511C35.3592 181.88 28.5285 183.35 22.263 187.596C22.0206 187.76 21.9405 187.947 21.9271 188.108C21.9128 188.279 21.9664 188.548 22.2368 188.843L28.9738 194.075ZM28.9738 194.075C28.3386 194.445 27.2361 194.303 26.6239 193.635C26.6239 193.635 26.6239 193.635 26.6238 193.635L22.2368 188.843L28.9738 194.075ZM24.3595 225.516C25.1449 222.704 28.8127 220.766 32.9961 221.934C37.1795 223.103 39.312 226.661 38.5267 229.473C37.7413 232.285 34.0735 234.224 29.8901 233.055C25.7067 231.887 23.5742 228.328 24.3595 225.516Z" fill="white" stroke="black" stroke-width="3"/>
<path d="M46.5819 278.451C37.5034 289.193 35.2382 299.205 37.0686 310.116C37.4006 312.095 39.2622 313.145 41.2913 312.49L49.8133 309.741C51.8625 309.08 53.3378 306.922 53.1369 304.879C52.5171 298.576 52.6333 294.388 57.0835 289.123C60.5826 284.983 67.099 281.712 70.3966 284.499C72.8894 286.606 72.0522 290.193 70.4798 295.872C68.6461 302.494 66.0466 311.112 72.881 316.888L73.9629 317.802C75.4281 319.041 77.8379 318.599 79.3455 316.815L87.5882 307.063C89.0958 305.279 89.1302 302.829 87.665 301.591L87.0269 301.052C82.2893 297.047 96.3397 280.024 83.5193 269.188C73.8647 261.027 56.236 267.029 46.5819 278.451ZM86.7233 314.691C82.3789 319.831 82.2795 326.916 86.5016 330.485C90.7235 334.053 97.6929 332.775 102.037 327.635C106.382 322.495 106.481 315.41 102.259 311.841C98.0368 308.273 91.0676 309.551 86.7233 314.691Z" fill="black"/>
<path d="M215.433 380.3C208.028 385.899 205.116 392.017 204.711 399.309C204.638 400.632 205.684 401.578 207.086 401.451L212.972 400.918C214.388 400.79 215.651 399.614 215.818 398.269C216.334 394.121 217.017 391.44 220.647 388.696C223.501 386.538 228.172 385.377 229.891 387.651C231.19 389.369 230.131 391.558 228.294 394.986C226.152 398.985 223.227 404.156 226.79 408.868L227.354 409.614C228.117 410.624 229.733 410.689 230.963 409.76L237.687 404.676C238.916 403.746 239.294 402.174 238.53 401.163L238.198 400.724C235.728 397.457 247.247 388.534 240.564 379.695C235.531 373.039 223.308 374.345 215.433 380.3ZM236.022 409.463C232.479 412.142 231.386 416.69 233.587 419.601C235.788 422.512 240.462 422.7 244.005 420.02C247.549 417.341 248.641 412.793 246.44 409.882C244.239 406.972 239.566 406.783 236.022 409.463Z" fill="black"/>
<path d="M315.844 365.337L315.844 365.337C317.017 363.345 318.16 361.583 319.703 360.176C321.281 358.736 323.199 357.735 325.832 357.094C327.966 356.575 330.476 356.554 332.605 357.101C334.655 357.628 336.853 358.836 337.424 361.181C337.852 362.943 337.221 364.425 336.191 365.697C335.211 366.906 333.726 368.11 332.083 369.412C332.006 369.473 331.929 369.534 331.851 369.595C329.922 371.123 327.926 372.704 326.526 374.596C325.122 376.494 324.392 378.607 325.029 381.225L325.272 382.223C325.343 382.515 325.914 383.117 327.036 382.844L336.037 380.653C337.16 380.38 337.391 379.584 337.319 379.292L337.176 378.703C336.926 377.673 337.198 376.735 337.643 375.962C338.073 375.217 338.71 374.536 339.376 373.917C340.05 373.29 340.844 372.645 341.641 371.998L341.691 371.958C342.487 371.312 343.303 370.651 344.102 369.939C347.376 367.021 349.982 363.603 348.747 358.529C347.823 354.731 344.561 351.791 340.015 350.092C335.488 348.401 329.935 348.052 324.951 349.265C315.449 351.577 310.209 356.199 306.821 362.967C306.69 363.229 306.712 363.431 306.779 363.579C306.85 363.735 307.028 363.943 307.409 364.068L315.844 365.337ZM315.844 365.337C315.47 365.97 314.439 366.385 313.578 366.102C313.578 366.102 313.578 366.102 313.578 366.102L307.409 364.068L315.844 365.337ZM327.196 395.017C326.506 392.181 328.757 388.696 332.977 387.669C337.198 386.642 340.798 388.703 341.488 391.54C342.179 394.376 339.928 397.861 335.707 398.888C331.487 399.915 327.887 397.854 327.196 395.017Z" fill="white" stroke="black" stroke-width="3"/>
<path d="M382.684 302.119C376.523 300.398 371.953 301.357 367.788 304.18C367.032 304.692 366.95 305.661 367.605 306.376L370.356 309.38C371.017 310.102 372.189 310.304 372.996 309.834C375.485 308.384 377.239 307.639 380.259 308.483C382.634 309.146 385.221 311.221 384.692 313.113C384.293 314.543 382.651 314.876 380.005 315.301C376.919 315.796 372.863 316.353 371.768 320.273L371.595 320.894C371.36 321.734 371.999 322.647 373.022 322.933L378.616 324.495C379.639 324.781 380.659 324.331 380.893 323.491L380.996 323.125C381.755 320.407 391.455 322.994 393.509 315.641C395.056 310.103 389.236 303.949 382.684 302.119ZM375.297 325.582C372.349 324.758 369.4 326.059 368.724 328.48C368.048 330.902 369.896 333.542 372.844 334.366C375.792 335.189 378.741 333.889 379.418 331.467C380.094 329.045 378.246 326.405 375.297 325.582Z" fill="black"/>
<path d="M259.687 168.163L259.687 168.163C260.771 166.121 261.835 164.311 263.314 162.836C264.827 161.328 266.698 160.244 269.301 159.487C271.409 158.874 273.916 158.741 276.067 159.193C278.139 159.629 280.388 160.739 281.062 163.056C281.568 164.798 281.003 166.306 280.03 167.622C279.105 168.873 277.674 170.142 276.091 171.515C276.017 171.58 275.942 171.644 275.867 171.709C274.008 173.321 272.084 174.988 270.769 176.94C269.45 178.899 268.814 181.042 269.567 183.629L269.853 184.616C269.938 184.905 270.534 185.48 271.644 185.157L280.539 182.571C281.648 182.248 281.844 181.442 281.76 181.153L281.59 180.571C281.295 179.554 281.526 178.605 281.936 177.813C282.332 177.05 282.939 176.341 283.576 175.693C284.222 175.037 284.987 174.357 285.754 173.676L285.803 173.633C286.569 172.953 287.354 172.257 288.121 171.51C291.263 168.449 293.715 164.92 292.257 159.905C291.165 156.152 287.777 153.359 283.16 151.863C278.563 150.374 272.999 150.271 268.073 151.704C258.683 154.434 253.654 159.284 250.568 166.195C250.449 166.463 250.48 166.664 250.553 166.808C250.631 166.961 250.819 167.161 251.204 167.27L259.687 168.163ZM259.687 168.163C259.342 168.812 258.331 169.273 257.458 169.028C257.458 169.028 257.458 169.028 257.458 169.028L251.204 167.27L259.687 168.163ZM272.343 197.312C271.528 194.509 273.622 190.928 277.793 189.715C281.964 188.502 285.652 190.401 286.467 193.205C287.282 196.008 285.188 199.589 281.017 200.802C276.846 202.015 273.158 200.116 272.343 197.312Z" fill="white" stroke="black" stroke-width="3"/>
</svg>
