<svg width="64" height="64" viewBox="0 0 64 64" fill="none" xmlns="http://www.w3.org/2000/svg">
<circle cx="32" cy="32" r="30" stroke="black" stroke-width="4"/>
<path d="M33.5138 45.7216V40.5145C33.5138 39.8083 34.0458 39.2361 34.7021 39.2361C37.0437 39.2361 38.3174 36.6519 38.4939 31.5514H34.7021C34.0458 31.5514 33.5138 30.9787 33.5138 30.2727V19.2782C33.5138 18.5724 34.0458 18.0001 34.7021 18.0001H44.8119C45.4685 18.0001 46 18.5728 46 19.2782V30.2727C46 32.7178 45.7712 34.9615 45.3202 36.9424C44.8576 38.9735 44.1476 40.7493 43.2104 42.2208C42.246 43.7331 41.0398 44.9198 39.6248 45.7465C38.2003 46.5782 36.5438 47 34.7017 47C34.0458 47 33.5138 46.4278 33.5138 45.7216ZM18.1884 39.236C17.5324 39.236 17 39.8088 17 40.5144V45.7215C17 46.4277 17.5324 46.9999 18.1884 46.9999C20.0298 46.9999 21.6866 46.578 23.1106 45.7464C24.5258 44.9197 25.7327 43.733 26.6972 42.2207C27.6341 40.7492 28.3441 38.9733 28.8068 36.9418C29.2575 34.9603 29.4863 32.7166 29.4863 30.2727V19.2781C29.4863 18.5723 28.9541 18 28.298 18H18.1885C17.5325 18 17.0006 18.5727 17.0006 19.2781V30.2727C17.0006 30.9786 17.5324 31.5514 18.1885 31.5514H21.9262C21.7524 36.6518 20.4973 39.236 18.1884 39.236Z" fill="black"/>
<path d="M63.5 20L56.5 22L48.5 11.5L54 5.5L63.5 20Z" fill="white"/>
<circle cx="56.5" cy="14.5" r="2.5" fill="black"/>
</svg>
